<svg xmlns="http://www.w3.org/2000/svg" viewBox="0 0 1080 1080" width="1080" height="1080" preserveAspectRatio="xMidYMid meet" style="width: 100%; height: 100%; transform: translate3d(0px, 0px, 0px);"><defs><clipPath id="__lottie_element_3"><rect width="1080" height="1080" x="0" y="0"></rect></clipPath></defs><g clip-path="url(#__lottie_element_3)"><g transform="matrix(0.8400446772575378,-0.48500001430511475,0.48500001430511475,0.8400446772575378,565,543.464111328125)" opacity="1" style="display: block;"><g opacity="1" transform="matrix(1,0,0,1,-34,-18)"><path fill="rgb(52,168,83)" fill-opacity="1" d=" M-70.15499877929688,50.9379997253418 C-71.15499877929688,51.9379997253418 -130.12399291992188,100.03099822998047 -130.12399291992188,100.03099822998047 C-130.12399291992188,100.03099822998047 -94,186 14,202 C100.35600280761719,214.79299926757812 160.06199645996094,160.06199645996094 160.06199645996094,160.06199645996094 C160.06199645996094,160.06199645996094 102,112 102,112 C102,112 47.75,146.28399658203125 -9,119 C-61,94 -69.15499877929688,49.9379997253418 -70.15499877929688,50.9379997253418z"></path></g></g><g transform="matrix(0.8660253882408142,-0.5,0.5,0.8660253882408142,563.5,540.8660278320312)" opacity="1" style="display: block;"><g opacity="1" transform="matrix(1,0,0,1,-34,-18)"><path fill="rgb(251,188,5)" fill-opacity="1" d=" M-127,-65 C-170,24 -125,100 -125,100 C-125,100 -64,54 -65,54 C-79,30 -65,-18 -65,-18 C-65,-18 -128,-65 -127,-65z"></path></g></g><g transform="matrix(0.8660253882408142,-0.5,0.5,0.8660253882408142,564.3660278320312,540.3660278320312)" opacity="1" style="display: block;"><g opacity="1" transform="matrix(1,0,0,1,-34,-18)"><path fill="rgb(234,67,53)" fill-opacity="1" d=" M-31,-152 C-107.5270004272461,-119.2030029296875 -127,-64 -127,-64 C-127,-64 -67,-17 -67,-17 C-67,-17 -6,-153 108,-65 C109.12000274658203,-64.13600158691406 158,-118 158,-118 C158,-118 67,-194 -31,-152z"></path></g></g><g transform="matrix(0.7906796336174011,-0.4564990997314453,0.5147086977958679,0.8915016055107117,535.8606567382812,353.14892578125)" opacity="1" style="display: block;"><g opacity="1" transform="matrix(0.93954998254776,0,0,0.8260700106620789,184.5,59.5)"><path fill="rgb(66,133,244)" fill-opacity="1" d=" M0,-43.5 C-12.01200008392334,-43.5 -22.886999130249023,-38.63100051879883 -30.759000778198242,-30.759000778198242 C-38.63100051879883,-22.886999130249023 -43.5,-12.01200008392334 -43.5,0 C-43.5,12.01200008392334 -38.63100051879883,22.886999130249023 -30.759000778198242,30.759000778198242 C-22.886999130249023,38.63100051879883 -12.01200008392334,43.5 0,43.5 C24.02400016784668,43.5 43.5,24.02400016784668 43.5,0 C43.5,-24.02400016784668 24.02400016784668,-43.5 0,-43.5z"></path></g></g></g></svg>